<svg width="138" height="220" viewBox="0 0 138 220" fill="none" xmlns="http://www.w3.org/2000/svg">
<g filter="url(#filter0_d_45_13)">
<path d="M132.453 63C132.453 85.6207 121.852 113.096 108.553 139.832C100.077 156.872 90.6024 173.432 82.1787 188.155C77.8922 195.648 73.8777 202.665 70.4051 209.028C58.3066 189.742 42.4342 164.014 29.4041 137.954C15.8454 110.837 5.5 83.6157 5.5 63C5.5 29.0184 31.5701 1.5 67.4526 1.5C103.429 1.5 132.453 29.1099 132.453 63Z" stroke="#FFFAF0" stroke-width="3" shape-rendering="crispEdges"/>
</g>
<path d="M46.56 47.12V75H42.92V62.36H28.72V75H25.08V47.12H28.72V59.36H42.92V47.12H46.56ZM54.6553 49.52C53.962 49.52 53.3753 49.28 52.8953 48.8C52.4153 48.32 52.1753 47.7333 52.1753 47.04C52.1753 46.3467 52.4153 45.76 52.8953 45.28C53.3753 44.8 53.962 44.56 54.6553 44.56C55.322 44.56 55.882 44.8 56.3353 45.28C56.8153 45.76 57.0553 46.3467 57.0553 47.04C57.0553 47.7333 56.8153 48.32 56.3353 48.8C55.882 49.28 55.322 49.52 54.6553 49.52ZM56.4153 53.08V75H52.7753V53.08H56.4153ZM71.6591 52.72C73.5524 52.72 75.2057 53.1333 76.6191 53.96C78.0591 54.7867 79.1257 55.8267 79.8191 57.08V53.08H83.4991V75.48C83.4991 77.48 83.0724 79.2533 82.2191 80.8C81.3657 82.3733 80.1391 83.6 78.5391 84.48C76.9657 85.36 75.1257 85.8 73.0191 85.8C70.1391 85.8 67.7391 85.12 65.8191 83.76C63.8991 82.4 62.7657 80.5467 62.4191 78.2H66.0191C66.4191 79.5333 67.2457 80.6 68.4991 81.4C69.7524 82.2267 71.2591 82.64 73.0191 82.64C75.0191 82.64 76.6457 82.0133 77.8991 80.76C79.1791 79.5067 79.8191 77.7467 79.8191 75.48V70.88C79.0991 72.16 78.0324 73.2267 76.6191 74.08C75.2057 74.9333 73.5524 75.36 71.6591 75.36C69.7124 75.36 67.9391 74.88 66.3391 73.92C64.7657 72.96 63.5257 71.6133 62.6191 69.88C61.7124 68.1467 61.2591 66.1733 61.2591 63.96C61.2591 61.72 61.7124 59.76 62.6191 58.08C63.5257 56.3733 64.7657 55.0533 66.3391 54.12C67.9391 53.1867 69.7124 52.72 71.6591 52.72ZM79.8191 64C79.8191 62.3467 79.4857 60.9067 78.8191 59.68C78.1524 58.4533 77.2457 57.52 76.0991 56.88C74.9791 56.2133 73.7391 55.88 72.3791 55.88C71.0191 55.88 69.7791 56.2 68.6591 56.84C67.5391 57.48 66.6457 58.4133 65.9791 59.64C65.3124 60.8667 64.9791 62.3067 64.9791 63.96C64.9791 65.64 65.3124 67.1067 65.9791 68.36C66.6457 69.5867 67.5391 70.5333 68.6591 71.2C69.7791 71.84 71.0191 72.16 72.3791 72.16C73.7391 72.16 74.9791 71.84 76.0991 71.2C77.2457 70.5333 78.1524 69.5867 78.8191 68.36C79.4857 67.1067 79.8191 65.6533 79.8191 64ZM100.53 52.68C102.184 52.68 103.677 53.04 105.01 53.76C106.344 54.4533 107.384 55.5067 108.13 56.92C108.904 58.3333 109.29 60.0533 109.29 62.08V75H105.69V62.6C105.69 60.4133 105.144 58.7467 104.05 57.6C102.957 56.4267 101.464 55.84 99.5703 55.84C97.6503 55.84 96.117 56.44 94.9703 57.64C93.8503 58.84 93.2903 60.5867 93.2903 62.88V75H89.6503V45.4H93.2903V56.2C94.0103 55.08 94.997 54.2133 96.2503 53.6C97.5303 52.9867 98.957 52.68 100.53 52.68Z" fill="white"/>
<defs>
<filter id="filter0_d_45_13" x="0" y="0" width="137.953" height="220" filterUnits="userSpaceOnUse" color-interpolation-filters="sRGB">
<feFlood flood-opacity="0" result="BackgroundImageFix"/>
<feColorMatrix in="SourceAlpha" type="matrix" values="0 0 0 0 0 0 0 0 0 0 0 0 0 0 0 0 0 0 127 0" result="hardAlpha"/>
<feOffset dy="4"/>
<feGaussianBlur stdDeviation="2"/>
<feComposite in2="hardAlpha" operator="out"/>
<feColorMatrix type="matrix" values="0 0 0 0 0 0 0 0 0 0 0 0 0 0 0 0 0 0 0.25 0"/>
<feBlend mode="normal" in2="BackgroundImageFix" result="effect1_dropShadow_45_13"/>
<feBlend mode="normal" in="SourceGraphic" in2="effect1_dropShadow_45_13" result="shape"/>
</filter>
</defs>
</svg>
